<svg width="80.000000" height="80.000000" viewBox="0 0 80 80" fill="none" xmlns="http://www.w3.org/2000/svg" xmlns:xlink="http://www.w3.org/1999/xlink">
	<desc>
			Created with Pixso.
	</desc>
	<defs/>
	<path id="Vector" d="M0 40.2233C0 60.11 14.4434 76.6467 33.3335 80L33.3335 51.11L23.3335 51.11L23.3335 40L33.3335 40L33.3335 31.11C33.3335 21.11 39.7769 15.5566 48.8901 15.5566C51.7769 15.5566 54.8901 16 57.7769 16.4434L57.7769 26.6666L52.6665 26.6666C47.7769 26.6666 46.6665 29.11 46.6665 32.2234L46.6665 40L57.3335 40L55.5566 51.11L46.6665 51.11L46.6665 80C65.5566 76.6467 80 60.1133 80 40.2233C80 18.1 62 0 40 0C18 0 0 18.1 0 40.2233Z" fill="#241400" fill-opacity="1.000000" fill-rule="evenodd"/>
</svg>

