<svg width="71.500000" height="71.500000" viewBox="0 0 71.5 71.5" fill="none" xmlns="http://www.w3.org/2000/svg" xmlns:xlink="http://www.w3.org/1999/xlink">
	<desc>
			Created with Pixso.
	</desc>
	<defs/>
	<path id="Vector" d="M21.0117 0.214478C24.8232 0.0389404 26.0391 0 35.75 0C45.4609 0 46.6768 0.0422363 50.4854 0.214478C54.2949 0.386719 56.8945 0.994507 59.1699 1.87524C61.5518 2.77551 63.7129 4.18274 65.501 6.00281C67.3203 7.78699 68.7246 9.94495 69.6211 12.3304C70.5059 14.6055 71.1104 17.2054 71.2852 21.0081C71.4609 24.8268 71.5 26.0422 71.5 35.75C71.5 45.461 71.458 46.6765 71.2852 50.4888C71.1133 54.2913 70.5059 56.8912 69.6211 59.1663C68.7246 61.5521 67.3184 63.7136 65.501 65.5005C63.7129 67.3205 61.5518 68.7245 59.1699 69.6215C56.8945 70.5055 54.2949 71.11 50.4922 71.2855C46.6768 71.461 45.4609 71.5 35.75 71.5C26.0391 71.5 24.8232 71.4578 21.0117 71.2855C17.209 71.1132 14.6084 70.5055 12.334 69.6215C9.94824 68.7244 7.78613 67.3181 5.99902 65.5005C4.18066 63.7151 2.77344 61.5546 1.875 59.1695C0.994141 56.8945 0.389648 54.2945 0.214844 50.492C0.0390625 46.6732 0 45.4578 0 35.75C0 26.0389 0.0419922 24.8235 0.214844 21.0145C0.386719 17.2054 0.994141 14.6055 1.875 12.3304C2.77441 9.94531 4.18359 7.78479 6.00293 5.99951C7.78711 4.18115 9.94629 2.77368 12.3301 1.87524C14.6055 0.994507 17.2051 0.390015 21.0078 0.214478L21.0117 0.214478ZM50.1963 6.64954C46.4258 6.47729 45.2949 6.44153 35.75 6.44153C26.2051 6.44153 25.0742 6.47729 21.3037 6.64954C17.8164 6.80872 15.9248 7.3905 14.6641 7.88123C12.9971 8.53125 11.8037 9.30151 10.5527 10.5527C9.36621 11.7067 8.4541 13.1115 7.88086 14.6639C7.39062 15.925 6.80859 17.8165 6.64941 21.3037C6.47754 25.0737 6.44141 26.2047 6.44141 35.75C6.44141 45.2952 6.47754 46.4263 6.64941 50.1962C6.80859 53.6835 7.39062 55.575 7.88086 56.836C8.45312 58.3862 9.36621 59.7935 10.5527 60.9473C11.7061 62.1335 13.1133 63.0468 14.6641 63.6188C15.9248 64.1095 17.8164 64.6912 21.3037 64.8505C25.0742 65.0228 26.2012 65.0585 35.75 65.0585C45.2988 65.0585 46.4258 65.0228 50.1963 64.8505C53.6836 64.6912 55.5752 64.1095 56.8359 63.6188C58.5029 62.9688 59.6963 62.1985 60.9473 60.9473C62.1338 59.7935 63.0469 58.3862 63.6191 56.836C64.1094 55.575 64.6914 53.6835 64.8506 50.1962C65.0225 46.4263 65.0586 45.2952 65.0586 35.75C65.0586 26.2047 65.0225 25.0737 64.8506 21.3037C64.6914 17.8165 64.1094 15.925 63.6191 14.6639C62.9688 12.9967 62.1982 11.804 60.9473 10.5527C59.793 9.3667 58.3887 8.45398 56.8359 7.88123C55.5752 7.3905 53.6836 6.80872 50.1963 6.64954ZM31.1836 46.7708C33.7344 47.8323 36.5732 47.9756 39.2178 47.1761C41.8613 46.3766 44.1465 44.684 45.6807 42.3873C47.2158 40.0906 47.9053 37.3323 47.6318 34.5836C47.3594 31.8348 46.1406 29.2661 44.1836 27.3163C42.9365 26.0698 41.4287 25.1154 39.7686 24.5217C38.1074 23.9281 36.3359 23.71 34.582 23.8831C32.8271 24.056 31.1318 24.6161 29.6201 25.5227C28.1074 26.4293 26.8145 27.6599 25.835 29.126C24.8555 30.5921 24.2129 32.2572 23.9541 34.0013C23.6953 35.7455 23.8262 37.5255 24.3379 39.213C24.8496 40.9004 25.7285 42.4535 26.9121 43.7603C28.0957 45.0672 29.5547 46.0953 31.1836 46.7708ZM22.7568 22.7565C24.4629 21.0502 26.4883 19.6967 28.7178 18.7732C30.9473 17.8497 33.3369 17.3744 35.75 17.3744C38.1631 17.3744 40.5527 17.8497 42.7822 18.7732C45.0117 19.6967 47.0371 21.0502 48.7432 22.7565C50.4502 24.4628 51.8037 26.4885 52.7266 28.718C53.6504 30.9474 54.126 33.3369 54.126 35.75C54.126 38.1631 53.6504 40.5526 52.7266 42.782C51.8037 45.0115 50.4502 47.0372 48.7432 48.7435C45.2979 52.1896 40.623 54.1255 35.75 54.1255C30.877 54.1255 26.2021 52.1896 22.7568 48.7435C19.3105 45.2974 17.374 40.6235 17.374 35.75C17.374 30.8765 19.3105 26.2026 22.7568 22.7565ZM58.2012 20.111C58.624 19.7122 58.9619 19.2324 59.1963 18.7004C59.4307 18.1683 59.5557 17.5947 59.5645 17.0135C59.5723 16.4323 59.4639 15.8552 59.2461 15.3167C59.0273 14.778 58.7031 14.2887 58.292 13.8777C57.8809 13.4666 57.3916 13.1422 56.8525 12.9237C56.3145 12.7052 55.7373 12.5969 55.1562 12.6053C54.5752 12.6139 54.001 12.7389 53.4688 12.973C52.9375 13.2072 52.457 13.5457 52.0586 13.9685C51.2832 14.7909 50.8584 15.8832 50.875 17.0135C50.8906 18.1439 51.3477 19.2234 52.1465 20.0227C52.9463 20.8221 54.0254 21.2784 55.1562 21.2949C56.2861 21.3114 57.3789 20.8867 58.2012 20.111Z" fill="#241400" fill-opacity="1.000000" fill-rule="evenodd"/>
</svg>
