<svg width="88.567383" height="72.000000" viewBox="0 0 88.5674 72" fill="none" xmlns="http://www.w3.org/2000/svg" xmlns:xlink="http://www.w3.org/1999/xlink">
	<desc>
			Created with Pixso.
	</desc>
	<defs/>
	<path id="Vector" d="M88.5674 8.54053C85.3105 9.98376 81.8115 10.9589 78.1338 11.3997C81.9287 9.12866 84.7686 5.55444 86.1221 1.34387C82.5566 3.46179 78.6533 4.95264 74.584 5.75159C71.8477 2.82947 68.2227 0.8927 64.2725 0.241821C60.3213 -0.409058 56.2666 0.262573 52.7373 2.15222C49.208 4.04199 46.4014 7.04407 44.7529 10.6925C43.1045 14.3409 42.7061 18.4315 43.6211 22.3292C36.3955 21.9666 29.3271 20.0885 22.875 16.8173C16.4224 13.546 10.73 8.95459 6.16699 3.34094C4.60645 6.03235 3.70947 9.15295 3.70947 12.4763C3.70801 15.468 4.44434 18.4139 5.85449 21.0527C7.26416 23.6914 9.30371 25.9414 11.7915 27.6029C8.90625 27.5111 6.08447 26.7314 3.56152 25.3289L3.56152 25.5629C3.56104 29.759 5.01221 33.8259 7.66943 37.0737C10.3262 40.3214 14.0249 42.5499 18.1377 43.381C15.4614 44.1054 12.6548 44.2121 9.93115 43.6931C11.0913 47.3035 13.3521 50.4608 16.396 52.7227C19.4395 54.9847 23.1152 56.2382 26.9062 56.3077C20.4697 61.3607 12.5205 64.1015 4.3374 64.0895C2.88818 64.0898 1.43945 64.0052 0 63.8359C8.30615 69.1766 17.9756 72.011 27.8506 71.9999C61.2793 71.9999 79.5537 44.3132 79.5537 20.3009C79.5537 19.5208 79.5342 18.7329 79.499 17.9528C83.0537 15.3821 86.1221 12.1989 88.5596 8.55225L88.5674 8.54053Z" fill="#241400" fill-opacity="1.000000" fill-rule="nonzero"/>
</svg>
