<svg width="38.000000" height="38.000000" viewBox="0 0 38 38" fill="none" xmlns="http://www.w3.org/2000/svg" xmlns:xlink="http://www.w3.org/1999/xlink">
	<desc>
			Created with Pixso.
	</desc>
	<defs>
		<clipPath id="clip203_2608">
			<rect id="akar-icons:heart" width="38.000000" height="38.000000" fill="white" fill-opacity="0"/>
		</clipPath>
	</defs>
	<rect id="akar-icons:heart" width="38.000000" height="38.000000" fill="#FFFFFF" fill-opacity="0"/>
	<g clip-path="url(#clip203_2608)">
		<path id="Combined Shape" d="M35.7402 26.2449C35.7402 29.7281 30.9639 30.1309 27.3711 30.1309L27.1143 30.1306C24.8252 30.1251 19 29.9806 19 26.2236C19 22.8114 23.585 22.3553 27.1494 22.3381L27.6279 22.3379C29.917 22.3434 35.7402 22.4879 35.7402 26.2449ZM27.3711 23.923C22.8682 23.923 20.585 24.6965 20.585 26.2236C20.585 27.7645 22.8682 28.5455 27.3711 28.5455C31.873 28.5455 34.1553 27.772 34.1553 26.2449C34.1553 24.704 31.873 23.923 27.3711 23.923ZM27.3711 9.13086C30.4658 9.13086 32.9824 11.6483 32.9824 14.7427C32.9824 17.8372 30.4658 20.3535 27.3711 20.3535L27.3379 20.3535C24.249 20.344 21.748 17.8256 21.7588 14.7395C21.7588 11.6483 24.2754 9.13086 27.3711 9.13086ZM27.3711 10.64C25.1084 10.64 23.2676 12.48 23.2676 14.7427C23.2598 16.998 25.0879 18.8369 27.3408 18.8455L27.3711 19.6L27.3711 18.8455C29.6328 18.8455 31.4727 17.0044 31.4727 14.7427C31.4727 12.48 29.6328 10.64 27.3711 10.64Z" fill="#000000" fill-opacity="1.000000" fill-rule="evenodd"/>
	</g>
</svg>
